<?xml version="1.0" encoding="utf-8"?>
<!-- Generator: Adobe Illustrator 25.2.0, SVG Export Plug-In . SVG Version: 6.00 Build 0)  -->
<svg version="1.1" id="Layer_1" xmlns="http://www.w3.org/2000/svg" xmlns:xlink="http://www.w3.org/1999/xlink" x="0px" y="0px"
	 viewBox="0 0 816.58 393.04" style="enable-background:new 0 0 816.58 393.04;" xml:space="preserve">
<style type="text/css">
	.st0{fill-rule:evenodd;clip-rule:evenodd;fill:#1D2064;}
	.st1{fill:#439F46;}
	.st2{fill:#FFFFFF;}
	.st3{fill-rule:evenodd;clip-rule:evenodd;}
	.st4{fill-rule:evenodd;clip-rule:evenodd;fill:#FFFFFF;}
	.st5{fill:#F9CF0C;}
	.st6{fill:#1D2064;}
</style>
<path class="st0" d="M124.62,261.47c0-6.94,1.29-13.4,3.88-19.38c2.58-5.98,6.12-11.22,10.63-15.72c4.5-4.5,9.78-8.05,15.83-10.63
	c6.06-2.58,12.48-3.88,19.27-3.88c6.94,0,13.4,1.29,19.38,3.88c5.98,2.58,11.26,6.13,15.83,10.63c4.58,4.5,8.16,9.74,10.74,15.72
	c2.58,5.98,3.87,12.44,3.87,19.38c0,6.79-1.29,13.21-3.87,19.27c-2.58,6.05-6.16,11.37-10.74,15.94
	c-4.57,4.57-9.85,8.15-15.83,10.74c-5.98,2.58-12.44,3.88-19.38,3.88c-6.79,0-13.21-1.29-19.27-3.88
	c-6.05-2.58-11.33-6.16-15.83-10.74c-4.5-4.58-8.05-9.89-10.63-15.94C125.91,274.68,124.62,268.26,124.62,261.47L124.62,261.47z
	 M144.11,261.47c0,4.13,0.77,8.05,2.33,11.74c1.55,3.69,3.69,6.9,6.42,9.63c2.73,2.73,5.94,4.87,9.63,6.42
	c3.69,1.55,7.6,2.33,11.74,2.33c4.14,0,8.05-0.77,11.74-2.33c3.69-1.55,6.9-3.69,9.63-6.42c2.73-2.73,4.87-5.94,6.42-9.63
	c1.55-3.69,2.33-7.6,2.33-11.74c0-4.13-0.77-8.01-2.33-11.63c-1.55-3.62-3.69-6.79-6.42-9.52c-2.73-2.73-5.94-4.87-9.63-6.42
	c-3.69-1.55-7.6-2.32-11.74-2.32c-4.13,0-8.05,0.77-11.74,2.32c-3.69,1.55-6.9,3.69-9.63,6.42c-2.73,2.73-4.87,5.91-6.42,9.52
	C144.88,253.45,144.11,257.33,144.11,261.47L144.11,261.47z M320.16,211.42v19.71h-60.01c-2.81,0-5.17,0.96-7.09,2.88
	c-1.92,1.92-2.88,4.28-2.88,7.09c0,2.81,0.96,5.2,2.88,7.2c1.92,1.99,4.28,2.99,7.09,2.99h39.86c4.13,0,8.01,0.77,11.63,2.33
	c3.62,1.55,6.79,3.65,9.52,6.31c2.73,2.66,4.87,5.79,6.42,9.41c1.55,3.62,2.33,7.49,2.33,11.63c0,4.14-0.78,8.01-2.33,11.63
	c-1.55,3.62-3.69,6.79-6.42,9.52c-2.73,2.73-5.9,4.87-9.52,6.42c-3.62,1.55-7.49,2.33-11.63,2.33h-59.79v-19.71h59.79
	c2.95,0,5.39-0.96,7.31-2.88c1.92-1.92,2.88-4.35,2.88-7.31c0-2.8-0.96-5.17-2.88-7.09c-1.92-1.92-4.35-2.88-7.31-2.88h-39.86
	c-4.14,0-8.01-0.77-11.63-2.33c-3.62-1.55-6.76-3.69-9.41-6.42c-2.66-2.73-4.76-5.9-6.31-9.52c-1.55-3.62-2.33-7.49-2.33-11.63
	c0-4.13,0.78-8.01,2.33-11.63c1.55-3.62,3.65-6.75,6.31-9.41c2.66-2.66,5.8-4.76,9.41-6.31c3.62-1.55,7.49-2.33,11.63-2.33H320.16
	L320.16,211.42z M336.32,211.42h19.49v99.43h-19.49V211.42L336.32,211.42z M422.02,211.42v19.71h-9.97c-4.13,0-8.01,0.78-11.63,2.33
	c-3.62,1.55-6.79,3.69-9.52,6.42c-2.73,2.73-4.87,5.9-6.42,9.52c-1.55,3.62-2.32,7.49-2.32,11.63v49.82h-19.93v-49.82
	c0-6.94,1.29-13.4,3.88-19.38c2.58-5.98,6.16-11.22,10.74-15.72c4.58-4.5,9.89-8.05,15.94-10.63c6.05-2.58,12.48-3.88,19.27-3.88
	H422.02L422.02,211.42z M427.78,261.24c0-6.94,1.29-13.4,3.88-19.38c2.58-5.98,6.13-11.22,10.63-15.72
	c4.5-4.5,9.78-8.05,15.83-10.63c6.05-2.58,12.48-3.87,19.27-3.87c6.94,0,13.4,1.29,19.38,3.87c5.98,2.58,11.26,6.13,15.83,10.63
	c4.58,4.5,8.16,9.75,10.74,15.72c2.59,5.98,3.87,12.44,3.87,19.38v49.83H507.5v-49.83c0-4.13-0.77-8.01-2.33-11.63
	c-1.55-3.62-3.69-6.79-6.42-9.52c-2.73-2.73-5.94-4.87-9.63-6.42c-3.69-1.55-7.6-2.33-11.74-2.33c-4.13,0-8.01,0.77-11.63,2.33
	c-3.62,1.55-6.79,3.69-9.52,6.42c-2.73,2.73-4.87,5.91-6.42,9.52c-1.55,3.62-2.33,7.49-2.33,11.63v49.83h-19.71V261.24
	L427.78,261.24z M611.8,275.86l13.95,13.95l-6.87,6.87c-4.72,4.72-10.11,8.34-16.17,10.85c-6.05,2.51-12.4,3.77-19.04,3.77
	c-6.64,0-12.99-1.26-19.04-3.77c-6.05-2.51-11.44-6.13-16.17-10.85c-4.87-4.87-8.49-10.37-10.85-16.5
	c-2.36-6.13-3.54-12.36-3.54-18.71c0-6.35,1.18-12.55,3.54-18.6c2.36-6.06,5.98-11.52,10.85-16.39c4.87-4.87,10.37-8.52,16.5-10.96
	c6.13-2.43,12.36-3.65,18.71-3.65c6.35,0,12.59,1.22,18.71,3.65c6.13,2.44,11.63,6.09,16.5,10.96l6.87,6.87l-55.14,55.14
	c5.61,2.8,11.55,3.73,17.82,2.77c6.27-0.96,11.78-3.8,16.5-8.52L611.8,275.86L611.8,275.86z M562.42,240.21
	c-5.91,5.9-8.86,12.99-8.86,21.26c0,4.58,1.03,8.93,3.1,13.06c1.77-1.77,4.47-4.47,8.08-8.08c3.62-3.62,7.46-7.46,11.52-11.52
	c4.06-4.06,7.97-7.94,11.74-11.63c3.76-3.69,6.68-6.57,8.75-8.64c-5.61-2.81-11.55-3.76-17.82-2.88
	C572.64,232.68,567.14,235.48,562.42,240.21L562.42,240.21z M691.96,291.14v19.71h-9.74c-6.79,0-13.21-1.29-19.27-3.87
	c-6.05-2.59-11.37-6.16-15.94-10.74c-4.58-4.57-8.16-9.89-10.74-15.94c-2.58-6.05-3.88-12.47-3.88-19.27v-89.46h19.71v59.79h39.86
	v19.71H652.1v9.96c0,4.14,0.78,8.05,2.33,11.74c1.55,3.69,3.69,6.9,6.42,9.63c2.73,2.73,5.94,4.87,9.63,6.42
	c3.69,1.55,7.6,2.33,11.74,2.33H691.96L691.96,291.14z"/>
<circle class="st1" cx="346.23" cy="141.13" r="59.37"/>
<path class="st2" d="M377.22,146.64c-2.62,14.75-15.5,25.99-30.99,25.99c-15.49,0-28.37-11.24-30.99-25.99h-19.53
	c2.76,25.44,24.36,45.31,50.52,45.31s47.76-19.87,50.52-45.31H377.22z"/>
</svg>
